<?xml version="1.0" encoding="UTF-8"?><svg id="Layer_1" xmlns="http://www.w3.org/2000/svg" viewBox="0 0 144 144"><defs><style>.cls-1{fill:#3d5daa;}.cls-2{fill:#fff;}</style></defs><path d="M106.49,100.78c6.56-7.46,10.12-16.7,10.81-26.51.4-5.73.06-11.29-1.52-16.81-1.78-6.23-4.53-11.97-8.6-16.95-6.85-8.38-17.53-14.24-28.39-14.3l-23.62-.11-.02,15.72c-.8.27-1.58.28-2.39.07h-10.79c-1.55.2-2.97.23-4.66.11V7.93s43.06.22,43.06.22c8.12.04,15.7,2.75,22.79,6.34,10.87,5.5,20.02,14.83,25.51,25.67,11.43,22.56,9.24,51.62-7.15,71.16-7.4,8.67-17.07,14.73-28.6,17.28l-.06-18.09c5.27-2.17,9.63-5.43,13.62-9.74Z"/><path class="cls-1" d="M87.73,127.14l-.04,6.59,10.6.04c.57.75.62,1.82.23,2.75H8.14c-.54-.82-.48-1.88-.05-2.76l9.52-.06v-50.98s1.92-.22,1.92-.22l.09-2.55h14.91s.18,2.66.18,2.66l2.19-.06-.09-8.22v-9.38s.11-14.35.11-14.35l2.78-.07.11-3.89h24.85s.17,3.89.17,3.89l3.03.18v31.79s2.08.14,2.08.14l.16-2.65h15.63s.08,2.56.08,2.56l1.94.12-.05,10.37v5.68s0,4.95,0,4.95v5.67s0,4.37,0,4.37v5.47s.02,7.99.02,7.99ZM50.3,65.11l-.15-3.79-8.64.05.02,9.92,8.65-.03.13-6.15ZM54.13,61.28v10.16s8.99,0,8.99,0v-10.16s-8.99,0-8.99,0ZM50.37,76.79h-8.87s0,10.27,0,10.27h8.87s0-10.27,0-10.27ZM63.29,76.8h-9.06s0,10.44,0,10.44h9.06s0-10.44,0-10.44ZM26.05,95.69l-.03-6.36h-5.57s-.02,6.4-.02,6.4l5.63-.04ZM34.06,95.69l-.02-6.37-5.62-.02v6.43s5.63-.04,5.63-.04ZM76.73,95.71l-.03-6.35-5.62-.07.02,6.44,5.64-.02ZM84.82,95.73l-.02-6.43-5.68.04-.02,6.4h5.72ZM50.37,92.9h-8.87v10.93h8.87v-10.93ZM54.23,92.9v10.94s9.06,0,9.06,0v-10.94s-9.06,0-9.06,0ZM25.94,102.85l.11-3.79-5.61.07.02,6.4,5.59-.19-.1-2.49ZM34.07,105.48l.03-6.43h-5.67s.03,6.47.03,6.47l5.61-.04ZM76.77,105.55v-6.47s-5.7-.01-5.7-.01l.04,6.48h5.66ZM84.84,105.54l-.03-6.48h-5.69s-.02,6.49-.02,6.49h5.74ZM26.06,115.35v-6.51s-5.55.04-5.55.04l-.09,6.54c1.92.29,3.89.24,5.64-.07ZM34.14,108.84h-5.74s0,6.65,0,6.65h5.74s0-6.65,0-6.65ZM76.8,108.84h-5.76s0,6.64,0,6.64h5.76s0-6.64,0-6.64ZM84.88,112.82v-3.97s-5.77.03-5.77.03v6.6s5.68-.02,5.68-.02l.08-2.64ZM41.53,109.43v10.43s8.85,0,8.85,0v-10.43s-8.85,0-8.85,0ZM63.3,109.6h-8.86v10.26h8.86v-10.26ZM26.04,125.42v-6.41s-5.47-.05-5.47-.05l-.17,6.23c.38.22,1.17.39,1.6.38l4.03-.15ZM34.08,118.93h-5.68s0,6.63,0,6.63h5.68s0-6.63,0-6.63ZM76.8,125.53l-.02-6.57h-5.72s.04,6.52.04,6.52l5.69.06ZM84.82,125.51v-6.55s-5.73,0-5.73,0v6.56s5.73,0,5.73,0Z"/><rect class="cls-2" x="53.29" y="93.84" width="10.94" height="9.06" transform="translate(-39.62 157.11) rotate(-89.99)"/><rect class="cls-2" x="41.5" y="92.9" width="8.87" height="10.93"/><rect class="cls-2" x="54.23" y="76.8" width="9.06" height="10.44"/><rect class="cls-2" x="40.74" y="110.22" width="10.43" height="8.86" transform="translate(-68.74 160.48) rotate(-89.94)"/><rect class="cls-2" x="41.5" y="76.79" width="8.87" height="10.27"/><rect class="cls-2" x="54.43" y="109.6" width="8.86" height="10.26"/><rect class="cls-2" x="53.54" y="61.86" width="10.16" height="9" transform="translate(-7.8 124.92) rotate(-89.94)"/><polygon class="cls-2" points="50.3 65.11 50.18 71.25 41.52 71.29 41.5 61.37 50.15 61.32 50.3 65.11"/><polygon class="cls-2" points="84.88 112.82 84.8 115.46 79.11 115.49 79.12 108.88 84.88 108.85 84.88 112.82"/><polygon class="cls-2" points="84.82 125.51 79.1 125.52 79.1 118.96 84.81 118.96 84.82 125.51"/><path class="cls-2" d="M26.06,115.35c-1.75.32-3.72.37-5.64.07l.09-6.54,5.55-.04v6.51Z"/><polygon class="cls-2" points="84.84 105.54 79.1 105.55 79.12 99.06 84.81 99.06 84.84 105.54"/><rect class="cls-2" x="28.4" y="108.84" width="5.74" height="6.65"/><rect class="cls-2" x="71.05" y="108.84" width="5.76" height="6.64"/><rect class="cls-2" x="28.4" y="118.93" width="5.68" height="6.62"/><polygon class="cls-2" points="76.8 125.53 71.1 125.47 71.06 118.96 76.78 118.95 76.8 125.53"/><polygon class="cls-2" points="76.77 105.55 71.11 105.55 71.07 99.07 76.77 99.08 76.77 105.55"/><polygon class="cls-2" points="84.82 95.73 79.1 95.73 79.12 89.34 84.8 89.3 84.82 95.73"/><polygon class="cls-2" points="76.73 95.71 71.09 95.73 71.07 89.3 76.69 89.37 76.73 95.71"/><polygon class="cls-2" points="34.06 95.69 28.43 95.73 28.42 89.3 34.04 89.32 34.06 95.69"/><polygon class="cls-2" points="34.07 105.48 28.45 105.52 28.42 99.05 34.09 99.05 34.07 105.48"/><polygon class="cls-2" points="26.05 95.69 20.43 95.73 20.45 89.33 26.02 89.32 26.05 95.69"/><path class="cls-2" d="M26.04,125.42l-4.03.15c-.43.02-1.22-.16-1.6-.38l.17-6.23,5.45.05v6.41Z"/><polygon class="cls-2" points="25.94 102.85 26.04 105.34 20.46 105.53 20.44 99.13 26.05 99.06 25.94 102.85"/></svg>